<?xml version="1.0" standalone="no"?><!DOCTYPE svg PUBLIC "-//W3C//DTD SVG 1.1//EN" "http://www.w3.org/Graphics/SVG/1.1/DTD/svg11.dtd"><svg t="1759900255419" class="icon" viewBox="0 0 1024 1024" version="1.1" xmlns="http://www.w3.org/2000/svg" p-id="18094" xmlns:xlink="http://www.w3.org/1999/xlink" width="200" height="200"><path d="M729.6 837.688889H375.466667c-15.644444 0-28.444444-12.8-28.444445-28.444445V466.488889c0-15.644444 12.8-28.444444 28.444445-28.444445 75.377778 0 143.644444-44.088889 174.933333-113.777777l7.111111-17.066667c9.955556-21.333333 27.022222-38.4 49.777778-46.933333 22.755556-8.533333 46.933333-8.533333 68.266667 1.422222 45.511111 19.911111 65.422222 72.533333 45.511111 118.044444l-25.6 58.311111h130.844444c24.177778 0 45.511111 11.377778 58.311111 31.288889 12.8 18.488889 15.644444 42.666667 7.111111 64l-69.688889 240.355556c0 1.422222 0 2.844444-1.422222 2.844444-15.644444 36.977778-51.2 61.155556-91.022222 61.155556z m-325.688889-56.888889h325.688889c17.066667 0 31.288889-9.955556 38.4-24.177778l69.688889-240.355555c0-1.422222 0-2.844444 1.422222-2.844445 2.844444-5.688889 0-9.955556-1.422222-11.377778-1.422222-2.844444-4.266667-5.688889-9.955556-5.688888H651.377778c-9.955556 0-18.488889-4.266667-24.177778-12.8-5.688889-8.533333-5.688889-18.488889-2.844444-27.022223l42.666666-98.133333c7.111111-15.644444 0-35.555556-17.066666-42.666667-8.533333-2.844444-17.066667-4.266667-24.177778 0-8.533333 2.844444-14.222222 8.533333-18.488889 17.066667l-7.111111 17.066667c-35.555556 81.066667-112.355556 136.533333-197.688889 146.488889v284.444444z m391.111111-15.644444z" fill="#3FA6AD" p-id="18095"></path><path d="M275.911111 837.688889h-85.333333c-15.644444 0-28.444444-12.8-28.444445-28.444445V466.488889c0-15.644444 12.8-28.444444 28.444445-28.444445h85.333333c15.644444 0 28.444444 12.8 28.444445 28.444445v342.755555c0 15.644444-12.8 28.444444-28.444445 28.444445z m-56.888889-56.888889h28.444445V494.933333h-28.444445v285.866667z" fill="#DC4569" p-id="18096"></path></svg>