<?xml version="1.0" standalone="no"?><!DOCTYPE svg PUBLIC "-//W3C//DTD SVG 1.1//EN" "http://www.w3.org/Graphics/SVG/1.1/DTD/svg11.dtd"><svg t="1759929582122" class="icon" viewBox="0 0 1024 1024" version="1.1" xmlns="http://www.w3.org/2000/svg" p-id="43757" xmlns:xlink="http://www.w3.org/1999/xlink" width="200" height="200"><path d="M894.184 409.654l0.216 0.4c-0.098-0.17-9.928-17-24.942-20.4-13.288-3-28.836 5.5-39.538 13.166l-42.256-58.454c41.54-29.756 76.44-29.702 98.4-24.418 46.526 11.2 69.258 52.096 71.694 56.722z m-158.2-186.25l91.416-91.43 50.6 50.6L786.57 274zM715.956 758.6a319.646 319.646 0 0 1-268 90.846L274.86 953.896l-0.436-0.436a128.146 128.146 0 0 1-173.646-6.768l-25.462-25.464a128.144 128.144 0 0 1-6.768-173.646l-0.436-0.436L172.564 574.05a319.644 319.644 0 0 1 90.846-268c124.766-124.768 327.78-124.768 452.548 0s124.766 327.776-0.002 452.55zM126.228 870.316l25.456 25.456a56.08 56.08 0 0 0 71.48 6.426L119.8 798.836a56.08 56.08 0 0 0 6.428 71.48zM158.88 736.09l127.03 127.03 67.99-41.028a320.156 320.156 0 0 1-154-154z m506.164-379.134a248 248 0 1 0 0 350.726 248.28 248.28 0 0 0 0-350.726zM478.812 682.67l-48.708-48.708 44.37-88.472-90.426 42.416-48.702-48.706 93.114-188.906 64.898 31.44-47.29 97.466 98.618-44.6 42.928 42.928-46.8 96.426 100.562-45.48 29.67 65.726z m129.012-499.488c6.6-11.432 13.558-27.778 9.2-40.718-4.914-14.622-22.768-22.732-22.948-22.812l0.424 0.174 26.644-66.654c4.878 1.964 48.128 20.52 64.02 65.762 7.502 21.356 11.066 56.128-14.554 100.502zM132 324a52 52 0 1 1 52-52 52 52 0 0 1-52 52z m708 382a52 52 0 1 1-52 52 52 52 0 0 1 52-52z" p-id="43758"></path></svg>