<?xml version="1.0" standalone="no"?><!DOCTYPE svg PUBLIC "-//W3C//DTD SVG 1.1//EN" "http://www.w3.org/Graphics/SVG/1.1/DTD/svg11.dtd"><svg t="1759891527886" class="icon" viewBox="0 0 1024 1024" version="1.1" xmlns="http://www.w3.org/2000/svg" p-id="10103" xmlns:xlink="http://www.w3.org/1999/xlink" width="200" height="200"><path d="M92.751788 1023.997788a79.619698 79.619698 0 0 1-71.141675-42.758727 78.14526 78.14526 0 0 1 4.423317-79.988308 604.151323 604.151323 0 0 0 51.23675-110.582914 85.886064 85.886064 0 0 0-4.423316-71.141675 513.473333 513.473333 0 0 1-47.550654-138.965863A469.240167 469.240167 0 0 1 78.744619 258.026801 479.19263 479.19263 0 0 1 438.876311 5.897755a497.623115 497.623115 0 0 1 356.076984 902.356583 465.55407 465.55407 0 0 1-251.391825 84.411625h-96.575746c-56.765896 0-117.217889 6.634975-184.304857 15.112998-33.174874 4.054707-66.718358 6.634975-100.261843 9.583852l-46.076214 3.686098h-6.266365a126.064523 126.064523 0 0 1-17.324657 2.948877zM514.809912 58.977554a460.762144 460.762144 0 0 0-67.086968 5.160536 426.112831 426.112831 0 0 0-317.741575 223.008878 412.105661 412.105661 0 0 0-46.444824 282.723651 466.659899 466.659899 0 0 0 42.021508 123.484255A144.126399 144.126399 0 0 1 132.561637 810.941373a619.264321 619.264321 0 0 1-57.134505 122.009816 20.642144 20.642144 0 0 0 0 21.010753 21.379363 21.379363 0 0 0 18.799095 11.058292 27.645729 27.645729 0 0 0 7.740804 0h9.952462L157.258488 958.385259c32.806265-2.580268 65.24392-5.160536 98.050185-9.215243 69.298626-8.478023 131.593668-13.638559 190.202613-15.481608h95.838525a408.788174 408.788174 0 0 0 221.165829-73.721943A438.645561 438.645561 0 0 0 514.809912 58.977554z" fill="#00B2B2" p-id="10104"></path><path d="M740.767667 495.780067a56.028677 56.028677 0 1 1-55.660067-57.134506 55.291457 55.291457 0 0 1 55.660067 57.134506zM381.373195 495.411457a56.397286 56.397286 0 1 1-112.425963 0 56.397286 56.397286 0 0 1 112.425963 0zM560.886126 495.780067a56.397286 56.397286 0 1 1-55.660067-57.134506 56.028677 56.028677 0 0 1 55.660067 57.134506z" fill="#00D8D2" p-id="10105"></path></svg>