<?xml version="1.0" standalone="no"?><!DOCTYPE svg PUBLIC "-//W3C//DTD SVG 1.1//EN" "http://www.w3.org/Graphics/SVG/1.1/DTD/svg11.dtd"><svg t="1759894209852" class="icon" viewBox="0 0 1039 1024" version="1.1" xmlns="http://www.w3.org/2000/svg" p-id="15117" xmlns:xlink="http://www.w3.org/1999/xlink" width="202.9296875" height="200"><path d="M808.015066 923.721281H694.237288c-21.212806 0-38.568738-17.355932-38.568738-38.568739s17.355932-38.568738 38.568738-38.568738h111.849341c42.425612 0 77.137476-34.711864 77.137476-77.137476V655.66855c0-21.212806 17.355932-38.568738 38.568739-38.568738s38.568738 17.355932 38.568738 38.568738v113.777778c1.928437 84.851224-67.495292 154.274953-152.346516 154.274953z m-422.327684 0h-117.634651c-84.851224 0-154.274953-69.423729-154.274953-154.274953v-111.849341c0-21.212806 17.355932-38.568738 38.568738-38.568738s38.568738 17.355932 38.568738 38.568738v111.849341c0 42.425612 34.711864 77.137476 77.137477 77.137476H385.687382c21.212806 0 38.568738 17.355932 38.568739 38.568738s-17.355932 38.568738-38.568739 38.568739z m538.033899-539.962336c-21.212806 0-38.568738-17.355932-38.568739-38.568738V231.412429c0-42.425612-34.711864-77.137476-77.137476-77.137476H694.237288c-21.212806 0-38.568738-17.355932-38.568738-38.568738s17.355932-38.568738 38.568738-38.568739h113.777778c84.851224 0 154.274953 69.423729 154.274953 154.274953v113.777778c0 21.212806-17.355932 38.568738-38.568738 38.568738z m-771.374765 0c-21.212806 0-38.568738-17.355932-38.568738-38.568738V231.412429c0-84.851224 69.423729-154.274953 154.274953-154.274953h115.706214c21.212806 0 38.568738 17.355932 38.568739 38.568739s-17.355932 38.568738-38.568739 38.568738h-115.706214c-42.425612 0-77.137476 34.711864-77.137477 77.137476v113.777778c0 21.212806-17.355932 38.568738-38.568738 38.568738z" fill="#4282C4" p-id="15118"></path><path d="M885.152542 499.46516h-694.237288c-21.212806 0-38.568738-17.355932-38.568738-38.568738s17.355932-38.568738 38.568738-38.568738h694.237288c21.212806 0 38.568738 17.355932 38.568739 38.568738s-17.355932 38.568738-38.568739 38.568738z" fill="#DE8B12" p-id="15119"></path></svg>