<?xml version="1.0" standalone="no"?><!DOCTYPE svg PUBLIC "-//W3C//DTD SVG 1.1//EN" "http://www.w3.org/Graphics/SVG/1.1/DTD/svg11.dtd"><svg t="1759915045181" class="icon" viewBox="0 0 1024 1024" version="1.1" xmlns="http://www.w3.org/2000/svg" p-id="26498" xmlns:xlink="http://www.w3.org/1999/xlink" width="200" height="200"><path d="M159.6 143.5c20.5-85 75.8-135.4 148.9-138.4C383.4 2 436.3 47.2 469.2 143.5H976.8c29 0 44.4 12.1 45 35 0.6 23.8-15.9 38-45.6 38-168 0.1-324.8 0.3-492.8-0.3-17.7-0.1-26.9 5.4-36.1 20.9-64.9 109.9-201.8 110.3-267 0.7-10-16.8-19.9-22.5-38.6-21.6-33 1.5-66.1 0.8-99.2 0.3-24.8-0.4-41.7-16.3-41.2-37.4 0.4-21.3 17.1-35.4 42.6-35.6 38.2-0.1 76.3 0 115.7 0z m153.1 105c49.7 0.4 90.3-39.8 89.9-89-0.3-48-40.5-88.5-88.1-88.8-49.5-0.2-89.6 39.9-89.4 89.5 0.2 49 38.7 87.9 87.6 88.3zM981.4 467.4c25.5 0.1 42.1 14.3 42.6 35.6 0.4 21.1-16.4 37-41.2 37.4-33.1 0.5-66.2 1.3-99.2-0.3-18.7-0.9-28.6 4.8-38.6 21.6-65.3 109.6-202.2 109.2-267-0.7-9.1-15.5-18.3-21-36.1-20.9-168 0.7-325.8 0.5-493.8 0.3-29.6 0-46.1-14.2-45.6-38 0.6-22.9 16-35 45-35h508.7C589.1 371.1 642 325.9 716.9 329c73.1 3 128.4 53.4 148.9 138.4 39.3-0.1 77.5-0.2 115.6 0zM800.2 484c0.2-49.6-39.9-89.7-89.4-89.5-47.6 0.2-87.8 40.7-88.1 88.8-0.3 49.2 40.3 89.3 89.9 89 48.9-0.4 87.5-39.3 87.6-88.3zM349.4 819.5c20.5-85 75.8-135.4 148.9-138.4 74.9-3.1 127.8 42.1 160.7 138.4H977.8c29 0 44.4 12.1 45 35 0.6 23.8-15.9 38-45.6 38-168 0.1-136 0.3-304-0.3-17.7-0.1-26.9 5.4-36.1 20.9-64.9 109.9-201.8 110.3-267 0.7-10-16.8-19.9-22.5-38.6-21.6-33 1.5-256 0.8-289 0.3-24.8-0.4-41.7-16.3-41.2-37.4 0.4-21.3 17.1-35.4 42.6-35.6 38.2-0.2 266.2 0 305.5 0z m153.1 104.9c49.7 0.4 90.3-39.8 89.9-89-0.3-48-40.5-88.5-88.1-88.8-49.5-0.2-89.6 39.9-89.4 89.5 0.2 49.1 38.7 87.9 87.6 88.3z" p-id="26499"></path></svg>