<?xml version="1.0" standalone="no"?><!DOCTYPE svg PUBLIC "-//W3C//DTD SVG 1.1//EN" "http://www.w3.org/Graphics/SVG/1.1/DTD/svg11.dtd"><svg t="1759914416135" class="icon" viewBox="0 0 1024 1024" version="1.1" xmlns="http://www.w3.org/2000/svg" p-id="25479" xmlns:xlink="http://www.w3.org/1999/xlink" width="200" height="200"><path d="M959.732 430.142v162.386l-99.595 33.2c-5.671 17.176-12.983 33.541-21.025 49.483l47.238 94.48-114.827 114.823-94.569-47.287c-15.898 8.002-32.217 15.28-49.341 20.932l-33.248 99.737H431.978l-33.248-99.737c-17.124-5.651-33.439-12.93-49.337-20.932l-94.577 47.287-114.823-114.823 47.238-94.48c-8.042-15.942-15.354-32.307-21.025-49.483l-99.595-33.2V430.142l99.595-33.2c5.671-17.176 12.983-33.541 21.025-49.483l-47.238-94.48 114.823-114.823 94.577 47.287c15.898-8.002 32.213-15.28 49.337-20.932l33.248-99.737h162.386l33.248 99.737c17.124 5.651 33.439 12.93 49.337 20.932l94.573-47.287L886.349 252.98l-47.238 94.48c8.042 15.942 15.354 32.307 21.025 49.483l99.596 33.199z m-166.21 39.639c-6.995-47.222-25.726-90.445-52.913-126.994l45.269-75.452-28.706-28.706-75.53 45.318c-36.521-27.013-79.695-45.606-126.823-52.589l-21.35-85.39h-40.596l-21.35 85.39c-47.128 6.983-90.303 25.576-126.823 52.589l-75.53-45.318-28.706 28.706 45.269 75.452c-27.187 36.549-45.919 79.772-52.913 126.994l-85.017 21.256v40.596l85.017 21.252c6.995 47.226 25.726 90.449 52.913 126.998l-45.269 75.453 28.706 28.706 75.53-45.318c36.521 27.013 79.695 45.61 126.823 52.589l21.35 85.391h40.596l21.35-85.391c47.128-6.979 90.303-25.576 126.823-52.589l75.53 45.318 28.706-28.706-45.269-75.453c27.187-36.549 45.919-79.772 52.913-126.998l85.017-21.252v-40.596l-85.017-21.256zM513.171 633.124c-67.264 0-121.789-54.525-121.789-121.789s54.525-121.789 121.789-121.789S634.96 444.071 634.96 511.335s-54.525 121.789-121.789 121.789z m0-162.385c-22.421 0-40.596 18.175-40.596 40.596 0 22.421 18.175 40.596 40.596 40.596s40.596-18.175 40.596-40.596c0.001-22.421-18.175-40.596-40.596-40.596z" fill="#050505" p-id="25480"></path></svg>