<?xml version="1.0" standalone="no"?><!DOCTYPE svg PUBLIC "-//W3C//DTD SVG 1.1//EN" "http://www.w3.org/Graphics/SVG/1.1/DTD/svg11.dtd"><svg t="1759906064286" class="icon" viewBox="0 0 1024 1024" version="1.1" xmlns="http://www.w3.org/2000/svg" p-id="22269" xmlns:xlink="http://www.w3.org/1999/xlink" width="200" height="200"><path d="M759.4 466c7.9 8.6 10.5 18.9 7.1 28.2-3.5 9.4-12.1 15.5-23.7 16.9l-255.1 30.1 16 135.3c1.2 9.8-5.8 18.7-15.6 19.8-9.8 1.2-18.6-5.8-19.8-15.6l-41.9-355.1c-2.3-19.6 11.7-37.3 31.3-39.5l255-30.1c11.5-1.4 21.3 2.7 26.8 10.9 5.6 8.3 5.5 18.9-0.1 29l-51.5 92.4 71.5 77.7zM618.8 616.3H575c-10.5 0-18.9-8.5-18.9-18.9 0-10.5 8.5-18.9 18.9-18.9h91.5c6.9 0 13.2 4.5 16 11.4l61 151.4c2.4 5.9 1.9 12.5-1.3 18-3 5.3-8.6 8.5-14.7 8.6h-457c-6.2-0.1-11.8-3.5-14.8-8.9-3.2-5.6-3.5-12.4-0.9-18.3l67.4-151.4c2.7-6.4 8.8-10.6 15.7-10.7h39.2c9.7 0 17.5 8.5 17.5 18.9 0 10.5-7.8 19-17.5 19h-28.2L298.4 730h402.3L655 616.3H618.8z m0 0" fill="#666666" p-id="22270"></path><path d="M270.5 771.5c-7.5-0.1-14.4-4.3-18-10.9-3.7-6.5-4.1-14.6-1.1-21.6l67.4-151.4c3.2-7.7 10.7-12.8 19-12.9H377.1c11.7 0 21.2 10.2 21.2 22.6 0 12.5-9.5 22.7-21.2 22.7h-25.8l-47.2 106.1h391.1L652.5 620H575c-12.5 0-22.6-10.2-22.6-22.6 0-12.5 10.2-22.6 22.6-22.6h91.5c8.4 0 16 5.4 19.4 13.7l61 151.4c2.8 6.9 2.2 14.8-1.6 21.3-3.6 6.3-10.5 10.3-17.8 10.4h-457z m67.4-189.4c-5.4 0.1-10.3 3.4-12.3 8.4v0.1L258.1 742c-2.1 4.8-1.8 10.4 0.8 15 2.4 4.3 6.8 7 11.6 7.1h456.9c4.7-0.1 9.1-2.6 11.4-6.7 2.6-4.5 3-10 1.1-14.8l-61-151.4c-2.2-5.5-7.2-9-12.6-9H575c-8.4 0-15.2 6.8-15.2 15.2 0 8.4 6.8 15.2 15.2 15.2h40.1v-0.2l3.9 0.2c0.7 0 1.4 0.1 1.9 0h36.6l48.6 120.9H292.7l53.8-120.9h30.6c7.6 0 13.8-6.9 13.8-15.3s-6.2-15.2-13.8-15.2h-39.2z m148 118c-10.8 0-20.1-8.1-21.4-19L422.6 326c-2.5-21.6 13-41.1 34.5-43.6l255-30.1c12.9-1.5 24 3.1 30.4 12.6 6.4 9.5 6.4 21.5 0 32.9l-50.2 90 74.6 81.1-0.7 0.1c5.5 8.4 6.8 17.8 3.6 26.5-4 10.7-13.7 17.8-26.7 19.3l-251.4 29.6L507.3 676c0.7 5.7-0.9 11.3-4.5 15.9-3.6 4.5-8.7 7.4-14.4 8-0.8 0.1-1.7 0.2-2.5 0.2zM717 259.4c-1.3 0-2.6 0.1-3.9 0.2l-255 30.1c-17.5 2-30.1 17.9-28.1 35.4l41.9 355.1c0.9 7.7 8 13.3 15.7 12.4 3.8-0.4 7.1-2.3 9.4-5.3 2.3-3 3.4-6.7 2.9-10.4l-16.4-139 258.7-30.5c10.2-1.2 17.7-6.5 20.7-14.5 2.9-8 0.6-16.8-6.3-24.4l-4.9-5.3-68.4-74.4 52.8-94.7c4.9-8.8 5-18 0.3-25.1-4.1-6.3-11.1-9.6-19.4-9.6z" fill="#666666" p-id="22271"></path></svg>