<?xml version="1.0" standalone="no"?><!DOCTYPE svg PUBLIC "-//W3C//DTD SVG 1.1//EN" "http://www.w3.org/Graphics/SVG/1.1/DTD/svg11.dtd"><svg t="1759917704934" class="icon" viewBox="0 0 1024 1024" version="1.1" xmlns="http://www.w3.org/2000/svg" p-id="28503" xmlns:xlink="http://www.w3.org/1999/xlink" width="200" height="200"><path d="M512 138.688A149.312 149.312 0 0 1 661.312 288v66.56C613.632 352.896 564.672 352 512 352c-52.672 0-101.632 0.896-149.312 2.56V288A149.312 149.312 0 0 1 512 138.688zM277.312 288v75.84A183.296 183.296 0 0 0 150.4 514.368c-6.4 46.912-11.712 96.256-11.712 146.944 0 50.752 5.376 100.032 11.712 147.008 11.52 86.08 82.88 154.048 170.688 158.08 60.928 2.816 122.88 4.288 190.912 4.288 68.096 0 129.92-1.472 190.912-4.288 87.808-4.032 159.104-72 170.688-158.08 6.4-46.976 11.712-96.32 11.712-147.008 0-50.688-5.376-100.032-11.712-146.944a183.232 183.232 0 0 0-126.912-150.528V288a234.688 234.688 0 1 0-469.376 0z m277.376 330.688V704a42.688 42.688 0 1 1-85.376 0V618.688a42.688 42.688 0 1 1 85.376 0z" fill="#333333" p-id="28504"></path></svg>