<?xml version="1.0" standalone="no"?><!DOCTYPE svg PUBLIC "-//W3C//DTD SVG 1.1//EN" "http://www.w3.org/Graphics/SVG/1.1/DTD/svg11.dtd"><svg t="1759930215130" class="icon" viewBox="0 0 1024 1024" version="1.1" xmlns="http://www.w3.org/2000/svg" p-id="46542" xmlns:xlink="http://www.w3.org/1999/xlink" width="200" height="200"><path d="M512 64C262.4 64 64 262.4 64 512s204.8 448 448 448c249.6 0 448-204.8 448-448s-198.4-448-448-448z m0 780.8c-38.4 0-64-25.6-64-64s25.6-64 64-64 64 25.6 64 64-25.6 64-64 64z m96-364.8c-19.2 25.6-51.2 57.6-51.2 76.8v51.2c0 25.6-19.2 44.8-44.8 44.8s-44.8-19.2-44.8-44.8v-51.2c0-57.6 38.4-96 83.2-134.4 32-38.4 44.8-57.6 44.8-70.4 0-44.8-38.4-83.2-83.2-83.2s-83.2 38.4-83.2 83.2c0 19.2-19.2 44.8-44.8 44.8-25.6 0-44.8-19.2-44.8-44.8C339.2 256 416 179.2 512 179.2s172.8 76.8 172.8 172.8c0 57.6-32 89.6-76.8 128z" fill="" p-id="46543"></path></svg>