<?xml version="1.0" standalone="no"?><!DOCTYPE svg PUBLIC "-//W3C//DTD SVG 1.1//EN" "http://www.w3.org/Graphics/SVG/1.1/DTD/svg11.dtd"><svg t="1759921011866" class="icon" viewBox="0 0 1280 1024" version="1.1" xmlns="http://www.w3.org/2000/svg" p-id="36366" xmlns:xlink="http://www.w3.org/1999/xlink" width="250" height="200"><path d="M322.3 301v411.5c0 75 60.8 135.8 135.8 135.8h316.5c75 0 135.8-60.8 135.8-135.8V301c0-75-60.8-135.8-135.8-135.8H458c-75 0.1-135.7 60.8-135.7 135.8z m443 479.3h-298c-42.5 0-77-34.5-77-77v-393c0-42.5 34.5-77 77-77h298c42.5 0 77 34.5 77 77v393c0 42.5-34.5 77-77 77z" p-id="36367"></path><path d="M731.8 472.8h-231c-18.8 0-34 15.2-34 34s15.2 34 34 34h231c18.8 0 34-15.2 34-34s-15.3-34-34-34zM574 610h-73c-18.8 0-34 15.2-34 34s15.2 34 34 34h73c18.8 0 34-15.2 34-34s-15.2-34-34-34zM732 336H501c-18.8 0-34 15.2-34 34s15.2 34 34 34h231c18.8 0 34-15.2 34-34s-15.2-34-34-34z" fill="#00F1A3" p-id="36368"></path></svg>