<?xml version="1.0" standalone="no"?><!DOCTYPE svg PUBLIC "-//W3C//DTD SVG 1.1//EN" "http://www.w3.org/Graphics/SVG/1.1/DTD/svg11.dtd"><svg t="1759917726651" class="icon" viewBox="0 0 1024 1024" version="1.1" xmlns="http://www.w3.org/2000/svg" p-id="29508" xmlns:xlink="http://www.w3.org/1999/xlink" width="200" height="200"><path d="M496.128 976.896c-3.584 0-381.44-63.488-381.44-605.696V230.4c0-18.432 8.192-33.792 27.648-53.248 15.36-15.36 30.208-20.992 53.248-20.992h25.6c39.424 0 79.36-6.656 117.76-12.8h2.048c51.2-14.848 97.28-43.52 128.512-81.408l4.608-4.608c12.8-7.168 27.136-11.264 41.984-11.264 14.848 0 29.696 4.096 42.496 11.776L583.68 76.8c40.448 32.256 78.848 54.784 113.152 66.048 27.136 9.216 52.224 13.824 75.264 13.824h6.656c10.752 0 16.896 6.144 16.896 16.896 0 3.584-5.632 10.24-16.896 10.24-25.6 0-47.616-4.608-72.704-9.728-4.096-1.024-8.704-2.048-13.312-2.56-48.128-12.288-90.624-36.352-126.976-72.704l-1.024-1.024-21.504-14.336-1.024-0.512c-8.192-4.096-16.896-6.656-25.088-6.656-9.728 0-18.432 3.072-24.576 9.216-42.496 42.496-91.648 73.728-146.432 92.16-34.816 5.632-79.872 12.288-117.76 12.288h-32.256c-7.168 0-18.944 0-30.208 10.752-10.752 10.752-10.752 23.04-10.752 30.208v134.656c0 261.12 92.16 402.432 169.472 474.624 84.48 78.336 173.568 96.768 184.32 96.768 13.312 0 103.936-17.92 190.464-97.792 77.824-71.68 170.496-212.48 170.496-474.624v-50.176l-333.312 340.48c-3.072 3.072-7.168 5.12-11.264 5.12s-8.192-1.536-11.776-5.12l-204.8-217.6c-7.168-7.168 2.048-19.456 6.144-23.552 3.584-3.584 7.168-5.12 11.776-5.12s8.192 1.536 11.776 5.12l196.096 209.408 350.208-350.208c4.096-4.096 12.288-8.192 15.36-8.192 2.56 0 4.096 0 5.12 0.512 1.536 3.072 3.072 5.12 4.608 6.656v99.328c0 540.16-375.296 604.672-381.44 605.696h-32.256z" fill="#333333" p-id="29509"></path></svg>